<svg id="Layer_1" data-name="Layer 1" xmlns="http://www.w3.org/2000/svg" xmlns:xlink="http://www.w3.org/1999/xlink" viewBox="0 0 308.02 355.68"><defs><style>.cls-1{fill:#dbeff8;}.cls-2{fill:#a3d9ea;opacity:0.3;}.cls-3{fill:url(#radial-gradient);}.cls-4{fill:url(#radial-gradient-2);}.cls-5{fill:url(#radial-gradient-3);}.cls-6{fill:url(#radial-gradient-4);}.cls-7{fill:url(#radial-gradient-5);}.cls-8{fill:url(#radial-gradient-6);}</style><radialGradient id="radial-gradient" cx="154.16" cy="207.48" r="96.04" gradientUnits="userSpaceOnUse"><stop offset="0" stop-color="#6cc7e2"/><stop offset="1" stop-color="#00b4d5"/></radialGradient><radialGradient id="radial-gradient-2" cx="154.09" cy="59.28" r="106.76" gradientUnits="userSpaceOnUse"><stop offset="0" stop-color="#96eff8"/><stop offset="1" stop-color="#6cc7e2"/></radialGradient><radialGradient id="radial-gradient-3" cx="59.94" cy="162.46" r="105.97" gradientUnits="userSpaceOnUse"><stop offset="0.01" stop-color="#96eff8"/><stop offset="0.26" stop-color="#87e1f0"/><stop offset="0.7" stop-color="#73cee6"/><stop offset="0.99" stop-color="#6cc7e2"/></radialGradient><radialGradient id="radial-gradient-4" cx="1222.25" cy="654.08" fx="1231.4147858709298" fy="614.8129850497581" r="72.63" gradientTransform="translate(-1016.83 -643.52) scale(1 1.39)" xlink:href="#radial-gradient-2"/><radialGradient id="radial-gradient-5" cx="102.75" cy="296.4" r="55.42" xlink:href="#radial-gradient-2"/><radialGradient id="radial-gradient-6" cx="102.75" cy="296.4" fx="47.33456578234495" r="55.42" xlink:href="#radial-gradient-2"/></defs><polygon class="cls-1" points="51.49 177.93 51.34 177.84 51.49 177.75 51.49 59.37 51.34 59.28 0 88.92 0 148.2 0 207.48 0 266.76 51.34 296.4 51.49 296.31 154.01 237.12 51.49 177.93"/><polygon class="cls-1" points="256.84 59.37 256.69 59.28 154.01 118.56 256.69 177.84 256.84 177.75 256.84 177.92 256.84 296.31 308.02 266.76 308.02 207.48 308.02 148.2 308.02 88.92 256.84 59.37"/><polygon class="cls-2" points="154.01 178.13 0 267.04 154.01 355.68 308.02 267.04 154.01 178.13"/><polygon class="cls-3" points="256.69 177.84 154.01 118.56 51.49 177.75 51.49 177.93 154.01 237.12 256.69 296.4 256.84 296.31 256.84 177.92 256.69 177.84"/><polygon class="cls-4" points="256.69 59.28 154.01 0 51.49 59.19 51.49 59.37 154.01 118.56 256.69 59.28"/><polygon class="cls-5" points="51.49 59.37 51.49 177.75 154.01 118.56 51.49 59.37"/><polygon class="cls-6" points="256.69 177.84 154.01 237.12 154.01 355.68 256.69 296.4 256.84 296.31 256.84 177.92 256.69 177.84"/><polygon class="cls-7" points="51.49 296.31 51.49 296.48 154.01 355.68 154.01 237.12 51.49 296.31"/><polygon class="cls-8" points="51.49 296.31 51.49 296.48 154.01 355.68 154.01 237.12 51.49 296.31"/></svg>